<mxfile host="app.diagrams.net" agent="Mozilla/5.0 (Windows NT 10.0; Win64; x64) AppleWebKit/537.36 (KHTML, like Gecko) Chrome/128.0.0.0 Safari/537.36 OPR/114.0.0.0" version="24.9.2">
  <diagram name="Main Menu" id="tcPHKEtXDvl9qhuXrN50">
    <mxGraphModel dx="577" dy="313" grid="1" gridSize="10" guides="1" tooltips="1" connect="1" arrows="1" fold="1" page="1" pageScale="1" pageWidth="850" pageHeight="1100" math="0" shadow="0">
      <root>
        <mxCell id="0" />
        <mxCell id="1" parent="0" />
        <mxCell id="WetBjnq_qkMeuxtk9Dm4-26" style="edgeStyle=orthogonalEdgeStyle;rounded=0;orthogonalLoop=1;jettySize=auto;html=1;entryX=0.5;entryY=0;entryDx=0;entryDy=0;" edge="1" parent="1" source="WetBjnq_qkMeuxtk9Dm4-1" target="WetBjnq_qkMeuxtk9Dm4-17">
          <mxGeometry relative="1" as="geometry" />
        </mxCell>
        <mxCell id="WetBjnq_qkMeuxtk9Dm4-1" value="Start" style="strokeWidth=2;html=1;shape=mxgraph.flowchart.terminator;whiteSpace=wrap;" vertex="1" parent="1">
          <mxGeometry x="60" y="100" width="100" height="60" as="geometry" />
        </mxCell>
        <mxCell id="WetBjnq_qkMeuxtk9Dm4-29" style="edgeStyle=orthogonalEdgeStyle;rounded=0;orthogonalLoop=1;jettySize=auto;html=1;entryX=0.5;entryY=0;entryDx=0;entryDy=0;" edge="1" parent="1" source="WetBjnq_qkMeuxtk9Dm4-7" target="WetBjnq_qkMeuxtk9Dm4-8">
          <mxGeometry relative="1" as="geometry" />
        </mxCell>
        <mxCell id="WetBjnq_qkMeuxtk9Dm4-7" value="jumlahMahasiswa = readData(mhs, inputFile);" style="rounded=0;whiteSpace=wrap;html=1;" vertex="1" parent="1">
          <mxGeometry x="50" y="310" width="120" height="60" as="geometry" />
        </mxCell>
        <mxCell id="WetBjnq_qkMeuxtk9Dm4-30" style="edgeStyle=orthogonalEdgeStyle;rounded=0;orthogonalLoop=1;jettySize=auto;html=1;entryX=0;entryY=0.5;entryDx=0;entryDy=0;" edge="1" parent="1" source="WetBjnq_qkMeuxtk9Dm4-8" target="WetBjnq_qkMeuxtk9Dm4-9">
          <mxGeometry relative="1" as="geometry" />
        </mxCell>
        <mxCell id="WetBjnq_qkMeuxtk9Dm4-32" value="False" style="edgeLabel;html=1;align=center;verticalAlign=middle;resizable=0;points=[];" vertex="1" connectable="0" parent="WetBjnq_qkMeuxtk9Dm4-30">
          <mxGeometry x="-0.3741" y="1" relative="1" as="geometry">
            <mxPoint as="offset" />
          </mxGeometry>
        </mxCell>
        <mxCell id="WetBjnq_qkMeuxtk9Dm4-33" style="edgeStyle=orthogonalEdgeStyle;rounded=0;orthogonalLoop=1;jettySize=auto;html=1;entryX=0.5;entryY=0;entryDx=0;entryDy=0;" edge="1" parent="1" source="WetBjnq_qkMeuxtk9Dm4-8" target="WetBjnq_qkMeuxtk9Dm4-13">
          <mxGeometry relative="1" as="geometry" />
        </mxCell>
        <mxCell id="WetBjnq_qkMeuxtk9Dm4-36" value="True" style="edgeLabel;html=1;align=center;verticalAlign=middle;resizable=0;points=[];" vertex="1" connectable="0" parent="WetBjnq_qkMeuxtk9Dm4-33">
          <mxGeometry x="-0.3559" y="1" relative="1" as="geometry">
            <mxPoint as="offset" />
          </mxGeometry>
        </mxCell>
        <mxCell id="WetBjnq_qkMeuxtk9Dm4-8" value="&lt;div&gt;&lt;font style=&quot;font-size: 11px;&quot;&gt;&lt;br&gt;&lt;/font&gt;&lt;/div&gt;&lt;font style=&quot;font-size: 11px;&quot;&gt;jumlahMahasiswa&lt;/font&gt;&lt;div&gt;&lt;span data-darkreader-inline-color=&quot;&quot; data-darkreader-inline-bgcolor=&quot;&quot; style=&quot;font-size: 11px; background-color: initial; color: rgb(0, 0, 0); --darkreader-inline-bgcolor: initial; --darkreader-inline-color: #e8e6e3;&quot;&gt;== 0?&lt;/span&gt;&lt;/div&gt;" style="rhombus;whiteSpace=wrap;html=1;" vertex="1" parent="1">
          <mxGeometry x="60" y="400" width="100" height="100" as="geometry" />
        </mxCell>
        <mxCell id="WetBjnq_qkMeuxtk9Dm4-9" value="Display&lt;div&gt;&quot;No data found or&amp;nbsp;&lt;/div&gt;&lt;div&gt;file not available.&quot;&lt;/div&gt;" style="shape=parallelogram;perimeter=parallelogramPerimeter;whiteSpace=wrap;html=1;fixedSize=1;" vertex="1" parent="1">
          <mxGeometry x="220" y="420" width="140" height="60" as="geometry" />
        </mxCell>
        <mxCell id="WetBjnq_qkMeuxtk9Dm4-10" value="End" style="strokeWidth=2;html=1;shape=mxgraph.flowchart.terminator;whiteSpace=wrap;" vertex="1" parent="1">
          <mxGeometry x="60" y="830" width="100" height="60" as="geometry" />
        </mxCell>
        <mxCell id="WetBjnq_qkMeuxtk9Dm4-11" style="edgeStyle=orthogonalEdgeStyle;rounded=0;orthogonalLoop=1;jettySize=auto;html=1;entryX=1;entryY=0.5;entryDx=0;entryDy=0;entryPerimeter=0;" edge="1" parent="1" source="WetBjnq_qkMeuxtk9Dm4-9" target="WetBjnq_qkMeuxtk9Dm4-10">
          <mxGeometry relative="1" as="geometry">
            <Array as="points">
              <mxPoint x="280" y="860" />
            </Array>
          </mxGeometry>
        </mxCell>
        <mxCell id="WetBjnq_qkMeuxtk9Dm4-37" style="edgeStyle=orthogonalEdgeStyle;rounded=0;orthogonalLoop=1;jettySize=auto;html=1;entryX=0.5;entryY=0;entryDx=0;entryDy=0;" edge="1" parent="1" source="WetBjnq_qkMeuxtk9Dm4-13" target="WetBjnq_qkMeuxtk9Dm4-14">
          <mxGeometry relative="1" as="geometry" />
        </mxCell>
        <mxCell id="WetBjnq_qkMeuxtk9Dm4-13" value="sortData(mhs, jumlahMahasiswa)" style="rounded=0;whiteSpace=wrap;html=1;" vertex="1" parent="1">
          <mxGeometry x="50" y="550" width="120" height="60" as="geometry" />
        </mxCell>
        <mxCell id="WetBjnq_qkMeuxtk9Dm4-39" style="edgeStyle=orthogonalEdgeStyle;rounded=0;orthogonalLoop=1;jettySize=auto;html=1;entryX=0.5;entryY=0;entryDx=0;entryDy=0;" edge="1" parent="1" source="WetBjnq_qkMeuxtk9Dm4-14" target="WetBjnq_qkMeuxtk9Dm4-15">
          <mxGeometry relative="1" as="geometry" />
        </mxCell>
        <mxCell id="WetBjnq_qkMeuxtk9Dm4-14" value="writeData(mhs, jumlahMahasiswa, outputFile)" style="rounded=0;whiteSpace=wrap;html=1;" vertex="1" parent="1">
          <mxGeometry x="50" y="640" width="120" height="60" as="geometry" />
        </mxCell>
        <mxCell id="WetBjnq_qkMeuxtk9Dm4-15" value="Display&lt;div&gt;&quot;Data has been sorted&amp;nbsp;&lt;/div&gt;&lt;div&gt;and saved to file&quot;&lt;/div&gt;" style="shape=parallelogram;perimeter=parallelogramPerimeter;whiteSpace=wrap;html=1;fixedSize=1;" vertex="1" parent="1">
          <mxGeometry x="35" y="730" width="150" height="70" as="geometry" />
        </mxCell>
        <mxCell id="WetBjnq_qkMeuxtk9Dm4-27" style="edgeStyle=orthogonalEdgeStyle;rounded=0;orthogonalLoop=1;jettySize=auto;html=1;entryX=0.5;entryY=0;entryDx=0;entryDy=0;" edge="1" parent="1" source="WetBjnq_qkMeuxtk9Dm4-17" target="WetBjnq_qkMeuxtk9Dm4-7">
          <mxGeometry relative="1" as="geometry" />
        </mxCell>
        <mxCell id="WetBjnq_qkMeuxtk9Dm4-17" value="&lt;div&gt;const char *inputFile, *outputFile,&lt;br&gt;&lt;/div&gt;struct mahasiswa mhs[100],&lt;div&gt;int jumlahMahasiswa&lt;/div&gt;" style="shape=hexagon;perimeter=hexagonPerimeter2;whiteSpace=wrap;html=1;fixedSize=1;" vertex="1" parent="1">
          <mxGeometry x="35" y="190" width="150" height="90" as="geometry" />
        </mxCell>
        <mxCell id="WetBjnq_qkMeuxtk9Dm4-40" style="edgeStyle=orthogonalEdgeStyle;rounded=0;orthogonalLoop=1;jettySize=auto;html=1;entryX=0.5;entryY=0;entryDx=0;entryDy=0;entryPerimeter=0;" edge="1" parent="1" source="WetBjnq_qkMeuxtk9Dm4-15" target="WetBjnq_qkMeuxtk9Dm4-10">
          <mxGeometry relative="1" as="geometry" />
        </mxCell>
      </root>
    </mxGraphModel>
  </diagram>
</mxfile>
